<?xml version="1.0" encoding="utf-8"?><!-- Generator: Adobe Illustrator 15.0.0, SVG Export Plug-In . SVG Version: 6.00 Build 0)  --><!DOCTYPE svg PUBLIC "-//W3C//DTD SVG 1.1//EN" "http://www.w3.org/Graphics/SVG/1.1/DTD/svg11.dtd"><svg xmlns="http://www.w3.org/2000/svg" xmlns:xlink="http://www.w3.org/1999/xlink" version="1.1" id="Слой_1" x="0px" y="0px" width="20" height="20" viewBox="0 0 48 48" enable-background="new 0 0 48 48" xml:space="preserve">
<g>
	<path fill="none" stroke="#B0BEC5" stroke-width="2" stroke-miterlimit="10" d="M12,24c0-10,7-15,18-15"/>
	<path fill="none" stroke="#B0BEC5" stroke-width="2" stroke-miterlimit="10" d="M12,24c0,10,7,15,18,15"/>
	<path fill="none" stroke="#B0BEC5" stroke-width="2" stroke-miterlimit="10" d="M30,19c0,0-11,0-18,5"/>
	<path fill="none" stroke="#B0BEC5" stroke-width="2" stroke-miterlimit="10" d="M30,29c0,0-11,0-18-5"/>
	<polygon fill="#B0BEC5" points="30,4.857 30,13 34.071,8.929  "/>
	<polygon fill="#B0BEC5" points="30,15 30,23.143 34.071,19.071  "/>
	<polygon fill="#B0BEC5" points="30,25 30,33.143 34.071,29.071  "/>
	<polygon fill="#B0BEC5" points="30,35 30,43.143 34.071,39.071  "/>
</g>
<g>
	<circle fill="#00BCD4" cx="38" cy="9" r="4"/>
	<circle fill="#00BCD4" cx="38" cy="19" r="4"/>
	<circle fill="#00BCD4" cx="38" cy="29" r="4"/>
	<circle fill="#00BCD4" cx="38" cy="39" r="4"/>
</g>
<circle fill="#0097A7" cx="12" cy="24" r="6"/>
</svg>